<mxfile host="app.diagrams.net" modified="2024-03-09T17:59:54.893Z" agent="Mozilla/5.0 (Windows NT 10.0; Win64; x64) AppleWebKit/537.36 (KHTML, like Gecko) Chrome/122.0.0.0 Safari/537.36" etag="A-urgM23VZE1DqUFYpky" version="24.0.4" type="device">
  <diagram name="Страница — 1" id="MWtvJ0DKKmae6OMIvrYs">
    <mxGraphModel dx="1050" dy="530" grid="1" gridSize="10" guides="1" tooltips="1" connect="1" arrows="1" fold="1" page="1" pageScale="1" pageWidth="827" pageHeight="1169" math="0" shadow="0">
      <root>
        <mxCell id="0" />
        <mxCell id="1" parent="0" />
        <mxCell id="-sTQnpXLuGOUUmqHMXIl-17" style="edgeStyle=orthogonalEdgeStyle;rounded=0;orthogonalLoop=1;jettySize=auto;html=1;exitX=1;exitY=0.5;exitDx=0;exitDy=0;entryX=0;entryY=0.5;entryDx=0;entryDy=0;" edge="1" parent="1" source="-sTQnpXLuGOUUmqHMXIl-14" target="-sTQnpXLuGOUUmqHMXIl-15">
          <mxGeometry relative="1" as="geometry" />
        </mxCell>
        <mxCell id="-sTQnpXLuGOUUmqHMXIl-18" style="edgeStyle=orthogonalEdgeStyle;rounded=0;orthogonalLoop=1;jettySize=auto;html=1;exitX=1;exitY=0.5;exitDx=0;exitDy=0;entryX=0;entryY=0.5;entryDx=0;entryDy=0;" edge="1" parent="1" source="-sTQnpXLuGOUUmqHMXIl-14" target="-sTQnpXLuGOUUmqHMXIl-16">
          <mxGeometry relative="1" as="geometry" />
        </mxCell>
        <mxCell id="-sTQnpXLuGOUUmqHMXIl-14" value="User&lt;div&gt;(родитель: регистрация, авторизация, восстановление пароля)&lt;/div&gt;" style="rounded=0;whiteSpace=wrap;html=1;" vertex="1" parent="1">
          <mxGeometry x="40" y="130" width="250" height="60" as="geometry" />
        </mxCell>
        <mxCell id="-sTQnpXLuGOUUmqHMXIl-15" value="Client&lt;div&gt;(наследник: просмотр каталога, добавление товаров в заказ в нужном количестве)&lt;/div&gt;" style="rounded=0;whiteSpace=wrap;html=1;" vertex="1" parent="1">
          <mxGeometry x="410" y="90" width="390" height="60" as="geometry" />
        </mxCell>
        <mxCell id="-sTQnpXLuGOUUmqHMXIl-16" value="Supplier&lt;div&gt;(наследник: создание, обновление, удаление своих ! товаров из каталога, запрос информации о его заказанных товарах, включение/выключение приема заказов)&lt;/div&gt;" style="rounded=0;whiteSpace=wrap;html=1;" vertex="1" parent="1">
          <mxGeometry x="410" y="180" width="390" height="70" as="geometry" />
        </mxCell>
        <mxCell id="-sTQnpXLuGOUUmqHMXIl-19" value="Product&lt;div&gt;(название, количество в наличии, возможность заказа, цена, информация о поставщике, информация о товаре, фото товара)&lt;/div&gt;" style="rounded=0;whiteSpace=wrap;html=1;" vertex="1" parent="1">
          <mxGeometry x="40" y="280" width="260" height="90" as="geometry" />
        </mxCell>
        <mxCell id="-sTQnpXLuGOUUmqHMXIl-20" value="Order&lt;div&gt;(id товара, id покупателя, id поставщика, количество, дата оформления; статус: создан, в работе, завершен, отклонен)&lt;/div&gt;" style="rounded=0;whiteSpace=wrap;html=1;" vertex="1" parent="1">
          <mxGeometry x="374" y="280" width="316" height="90" as="geometry" />
        </mxCell>
        <mxCell id="-sTQnpXLuGOUUmqHMXIl-21" value="Shop&lt;div&gt;(название, информация о магазине)&lt;/div&gt;" style="rounded=0;whiteSpace=wrap;html=1;fillColor=#fff2cc;strokeColor=#d6b656;" vertex="1" parent="1">
          <mxGeometry x="40" y="410" width="260" height="70" as="geometry" />
        </mxCell>
        <mxCell id="-sTQnpXLuGOUUmqHMXIl-22" value="Administrator&lt;div&gt;(создание, редактирование, удаление пользователей, товаров, заказов, магазинов)&lt;/div&gt;" style="rounded=0;whiteSpace=wrap;html=1;" vertex="1" parent="1">
          <mxGeometry x="40" y="20" width="270" height="60" as="geometry" />
        </mxCell>
      </root>
    </mxGraphModel>
  </diagram>
</mxfile>
